<mxfile host="app.diagrams.net" agent="Mozilla/5.0 (X11; Linux x86_64) AppleWebKit/537.36 (KHTML, like Gecko) Chrome/130.0.0.0 Safari/537.36" version="26.0.2">
  <diagram name="Page-1" id="79mEakWZzlJT8l5r2_qh">
    <mxGraphModel dx="2868" dy="1572" grid="1" gridSize="10" guides="1" tooltips="1" connect="1" arrows="1" fold="1" page="1" pageScale="1" pageWidth="827" pageHeight="1169" math="0" shadow="0">
      <root>
        <mxCell id="0" />
        <mxCell id="1" parent="0" />
        <mxCell id="GiRs8gjFRRvFK5nXhPz--1" value="ONLINE MARKET" style="rounded=0;whiteSpace=wrap;html=1;" vertex="1" parent="1">
          <mxGeometry x="210" y="240" width="830" height="60" as="geometry" />
        </mxCell>
        <mxCell id="GiRs8gjFRRvFK5nXhPz--2" value="ONLINE MARKET" style="rounded=0;whiteSpace=wrap;html=1;" vertex="1" parent="1">
          <mxGeometry x="220" y="130" width="830" height="60" as="geometry" />
        </mxCell>
        <mxCell id="GiRs8gjFRRvFK5nXhPz--3" value="ONLINE MARKET" style="rounded=0;whiteSpace=wrap;html=1;" vertex="1" parent="1">
          <mxGeometry x="220" y="650" width="830" height="60" as="geometry" />
        </mxCell>
        <mxCell id="GiRs8gjFRRvFK5nXhPz--4" value="ONLINE MARKET" style="rounded=0;whiteSpace=wrap;html=1;" vertex="1" parent="1">
          <mxGeometry x="210" y="410" width="830" height="60" as="geometry" />
        </mxCell>
        <mxCell id="GiRs8gjFRRvFK5nXhPz--5" value="ONLINE MARKET" style="rounded=0;whiteSpace=wrap;html=1;" vertex="1" parent="1">
          <mxGeometry x="190" y="555" width="830" height="60" as="geometry" />
        </mxCell>
        <mxCell id="GiRs8gjFRRvFK5nXhPz--6" value="ONLINE MARKET" style="rounded=0;whiteSpace=wrap;html=1;" vertex="1" parent="1">
          <mxGeometry x="230" y="60" width="830" height="60" as="geometry" />
        </mxCell>
      </root>
    </mxGraphModel>
  </diagram>
</mxfile>
